<mxfile host="app.diagrams.net" agent="Mozilla/5.0 (Windows NT 10.0; Win64; x64) AppleWebKit/537.36 (KHTML, like Gecko) Chrome/131.0.0.0 Safari/537.36" version="26.0.6">
  <diagram id="C5RBs43oDa-KdzZeNtuy" name="Page-1">
    <mxGraphModel dx="1434" dy="754" grid="1" gridSize="10" guides="1" tooltips="1" connect="1" arrows="1" fold="1" page="1" pageScale="1" pageWidth="827" pageHeight="1169" math="0" shadow="0">
      <root>
        <mxCell id="WIyWlLk6GJQsqaUBKTNV-0" />
        <mxCell id="WIyWlLk6GJQsqaUBKTNV-1" parent="WIyWlLk6GJQsqaUBKTNV-0" />
        <mxCell id="sNCcM4xF1B9Kn6jDl8ZX-9" value="" style="edgeStyle=orthogonalEdgeStyle;rounded=0;orthogonalLoop=1;jettySize=auto;html=1;" edge="1" parent="WIyWlLk6GJQsqaUBKTNV-1" source="WIyWlLk6GJQsqaUBKTNV-3" target="sNCcM4xF1B9Kn6jDl8ZX-1">
          <mxGeometry relative="1" as="geometry" />
        </mxCell>
        <mxCell id="WIyWlLk6GJQsqaUBKTNV-3" value="User wants to watch for item on fb marketplace&lt;div&gt;&quot;I want a bike&quot;&lt;/div&gt;" style="rounded=1;whiteSpace=wrap;html=1;fontSize=12;glass=0;strokeWidth=1;shadow=0;" parent="WIyWlLk6GJQsqaUBKTNV-1" vertex="1">
          <mxGeometry x="160" y="80" width="130" height="50" as="geometry" />
        </mxCell>
        <mxCell id="sNCcM4xF1B9Kn6jDl8ZX-10" value="" style="edgeStyle=orthogonalEdgeStyle;rounded=0;orthogonalLoop=1;jettySize=auto;html=1;" edge="1" parent="WIyWlLk6GJQsqaUBKTNV-1" source="sNCcM4xF1B9Kn6jDl8ZX-1" target="sNCcM4xF1B9Kn6jDl8ZX-6">
          <mxGeometry relative="1" as="geometry" />
        </mxCell>
        <mxCell id="sNCcM4xF1B9Kn6jDl8ZX-1" value="User creates new item to search for&lt;div&gt;eg. bike in title or description&lt;/div&gt;" style="rounded=1;whiteSpace=wrap;html=1;" vertex="1" parent="WIyWlLk6GJQsqaUBKTNV-1">
          <mxGeometry x="165" y="160" width="120" height="60" as="geometry" />
        </mxCell>
        <mxCell id="sNCcM4xF1B9Kn6jDl8ZX-15" value="" style="edgeStyle=orthogonalEdgeStyle;rounded=0;orthogonalLoop=1;jettySize=auto;html=1;" edge="1" parent="WIyWlLk6GJQsqaUBKTNV-1" source="sNCcM4xF1B9Kn6jDl8ZX-6" target="sNCcM4xF1B9Kn6jDl8ZX-13">
          <mxGeometry relative="1" as="geometry" />
        </mxCell>
        <mxCell id="sNCcM4xF1B9Kn6jDl8ZX-6" value="FBMAS searches on an interval for these items" style="rounded=1;whiteSpace=wrap;html=1;" vertex="1" parent="WIyWlLk6GJQsqaUBKTNV-1">
          <mxGeometry x="165" y="250" width="120" height="60" as="geometry" />
        </mxCell>
        <mxCell id="sNCcM4xF1B9Kn6jDl8ZX-17" value="yes" style="edgeStyle=orthogonalEdgeStyle;rounded=0;orthogonalLoop=1;jettySize=auto;html=1;" edge="1" parent="WIyWlLk6GJQsqaUBKTNV-1" source="sNCcM4xF1B9Kn6jDl8ZX-13" target="sNCcM4xF1B9Kn6jDl8ZX-16">
          <mxGeometry relative="1" as="geometry" />
        </mxCell>
        <mxCell id="sNCcM4xF1B9Kn6jDl8ZX-25" value="" style="edgeStyle=orthogonalEdgeStyle;rounded=0;orthogonalLoop=1;jettySize=auto;html=1;" edge="1" parent="WIyWlLk6GJQsqaUBKTNV-1" source="sNCcM4xF1B9Kn6jDl8ZX-13" target="sNCcM4xF1B9Kn6jDl8ZX-24">
          <mxGeometry relative="1" as="geometry" />
        </mxCell>
        <mxCell id="sNCcM4xF1B9Kn6jDl8ZX-13" value="found matching&amp;nbsp;&lt;div&gt;item&lt;/div&gt;" style="rhombus;whiteSpace=wrap;html=1;" vertex="1" parent="WIyWlLk6GJQsqaUBKTNV-1">
          <mxGeometry x="185" y="340" width="80" height="80" as="geometry" />
        </mxCell>
        <mxCell id="sNCcM4xF1B9Kn6jDl8ZX-19" value="" style="edgeStyle=orthogonalEdgeStyle;rounded=0;orthogonalLoop=1;jettySize=auto;html=1;" edge="1" parent="WIyWlLk6GJQsqaUBKTNV-1" source="sNCcM4xF1B9Kn6jDl8ZX-16" target="sNCcM4xF1B9Kn6jDl8ZX-18">
          <mxGeometry relative="1" as="geometry" />
        </mxCell>
        <mxCell id="sNCcM4xF1B9Kn6jDl8ZX-20" value="yes" style="edgeLabel;html=1;align=center;verticalAlign=middle;resizable=0;points=[];" vertex="1" connectable="0" parent="sNCcM4xF1B9Kn6jDl8ZX-19">
          <mxGeometry x="0.1316" y="1" relative="1" as="geometry">
            <mxPoint as="offset" />
          </mxGeometry>
        </mxCell>
        <mxCell id="sNCcM4xF1B9Kn6jDl8ZX-22" value="" style="edgeStyle=orthogonalEdgeStyle;rounded=0;orthogonalLoop=1;jettySize=auto;html=1;" edge="1" parent="WIyWlLk6GJQsqaUBKTNV-1" source="sNCcM4xF1B9Kn6jDl8ZX-16" target="sNCcM4xF1B9Kn6jDl8ZX-21">
          <mxGeometry relative="1" as="geometry" />
        </mxCell>
        <mxCell id="sNCcM4xF1B9Kn6jDl8ZX-23" value="no" style="edgeLabel;html=1;align=center;verticalAlign=middle;resizable=0;points=[];" vertex="1" connectable="0" parent="sNCcM4xF1B9Kn6jDl8ZX-22">
          <mxGeometry x="-0.5517" y="3" relative="1" as="geometry">
            <mxPoint x="-3" as="offset" />
          </mxGeometry>
        </mxCell>
        <mxCell id="sNCcM4xF1B9Kn6jDl8ZX-16" value="notify&lt;div&gt;user&lt;/div&gt;" style="rhombus;whiteSpace=wrap;html=1;" vertex="1" parent="WIyWlLk6GJQsqaUBKTNV-1">
          <mxGeometry x="320" y="340" width="80" height="80" as="geometry" />
        </mxCell>
        <mxCell id="sNCcM4xF1B9Kn6jDl8ZX-18" value="notifies with preferred method" style="rounded=1;whiteSpace=wrap;html=1;" vertex="1" parent="WIyWlLk6GJQsqaUBKTNV-1">
          <mxGeometry x="300" y="250" width="120" height="60" as="geometry" />
        </mxCell>
        <mxCell id="sNCcM4xF1B9Kn6jDl8ZX-21" value="adds item to matched list" style="rounded=1;whiteSpace=wrap;html=1;" vertex="1" parent="WIyWlLk6GJQsqaUBKTNV-1">
          <mxGeometry x="300" y="470" width="120" height="60" as="geometry" />
        </mxCell>
        <mxCell id="sNCcM4xF1B9Kn6jDl8ZX-24" value="do nothing" style="rounded=1;whiteSpace=wrap;html=1;" vertex="1" parent="WIyWlLk6GJQsqaUBKTNV-1">
          <mxGeometry x="165" y="470" width="120" height="60" as="geometry" />
        </mxCell>
      </root>
    </mxGraphModel>
  </diagram>
</mxfile>
